<?xml version="1.0" encoding="UTF-8"?>
<svg id="Layer_2" data-name="Layer 2" xmlns="http://www.w3.org/2000/svg" viewBox="0 0 1000 1000">
  <defs>
    <style>
      .cls-1 {
        fill: #fff;
      }

      .cls-2 {
        fill: #5e0edd;
      }
    </style>
  </defs>
  <g id="Layer_1" data-name="Layer 1">
    <g>
      <rect class="cls-2" width="1000" height="1000"/>
      <g>
        <path class="cls-1" d="M601.68,147.91l-151.12,706.48h-99.86L199.57,147.91h88.64l92.92,470.99c3.2,17.09,6.41,33.64,9.61,50.2s6.41,33.64,9.61,50.73c3.2-17.09,6.41-34.17,9.61-50.73,3.2-16.55,6.41-33.11,9.61-50.2l93.45-470.99h88.64Z"/>
        <path class="cls-1" d="M799.57,144.76l-151.12,706.48h-99.86L397.47,144.76h88.64l92.92,470.99c3.2,17.09,6.41,33.64,9.61,50.2,3.2,16.55,6.41,33.64,9.61,50.73,3.2-17.09,6.41-34.17,9.61-50.73,3.2-16.55,6.41-33.11,9.61-50.2l93.45-470.99h88.64Z"/>
      </g>
    </g>
  </g>
</svg>